<?xml version="1.0" encoding="UTF-8" standalone="no"?>
<svg
   xmlns:dc="http://purl.org/dc/elements/1.1/"
   xmlns:cc="http://creativecommons.org/ns#"
   xmlns:rdf="http://www.w3.org/1999/02/22-rdf-syntax-ns#"
   xmlns:svg="http://www.w3.org/2000/svg"
   xmlns="http://www.w3.org/2000/svg"
   xmlns:sodipodi="http://sodipodi.sourceforge.net/DTD/sodipodi-0.dtd"
   xmlns:inkscape="http://www.inkscape.org/namespaces/inkscape"
   width="100.96567mm"
   height="84.506836mm"
   viewBox="0 0 100.96567 84.506836"
   version="1.1"
   id="svg8"
   inkscape:version="1.0.1 (3bc2e813f5, 2020-09-07)"
   sodipodi:docname="patra.svg">
  <defs
     id="defs2" />
  <sodipodi:namedview
     id="base"
     pagecolor="#ffffff"
     bordercolor="#666666"
     borderopacity="1.0"
     inkscape:pageopacity="0.0"
     inkscape:pageshadow="2"
     inkscape:zoom="0.49497475"
     inkscape:cx="7.1448433"
     inkscape:cy="278.78055"
     inkscape:document-units="mm"
     inkscape:current-layer="layer1"
     inkscape:document-rotation="0"
     showgrid="false"
     inkscape:window-width="1267"
     inkscape:window-height="728"
     inkscape:window-x="83"
     inkscape:window-y="0"
     inkscape:window-maximized="0" />
  <metadata
     id="metadata5">
    <rdf:RDF>
      <cc:Work
         rdf:about="">
        <dc:format>image/svg+xml</dc:format>
        <dc:type
           rdf:resource="http://purl.org/dc/dcmitype/StillImage" />
        <dc:title></dc:title>
      </cc:Work>
    </rdf:RDF>
  </metadata>
  <g
     inkscape:label="Layer 1"
     inkscape:groupmode="layer"
     id="layer1"
     transform="translate(-35.172667,-72.264887)">
    <path
       style="fill:#957186;fill-opacity:1;stroke:#957186;stroke-width:0.264583px;stroke-linecap:butt;stroke-linejoin:miter;stroke-opacity:1"
       d="m 112.19353,155.97737 20.41072,0.0945 c 1.91724,0.0376 3.24642,-1.76096 3.40178,-3.11831 l -0.14174,-77.626857 c -0.233,-1.5152 -1.07604,-2.26041 -2.83482,-2.929316 l -22.01711,0.18899 c 2.09308,0.578034 2.90435,1.630811 3.30729,2.83482 l -0.23623,77.815853 c 0.11738,1.71232 -0.93216,2.43728 -1.88989,2.74032 z"
       id="path851"
       sodipodi:nodetypes="ccccccccc" />
    <path
       style="fill:#d9b8c4;fill-opacity:1;stroke:#d9b8c4;stroke-width:0.264583px;stroke-linecap:butt;stroke-linejoin:miter;stroke-opacity:1"
       d="m 90.270915,156.26086 20.410725,0.0945 c 1.91724,0.0376 3.24642,-1.76096 3.40178,-3.11831 l -0.14174,-77.626856 c -0.233,-1.5152 -1.07604,-2.26041 -2.83482,-2.929316 l -22.017115,0.18899 c 2.09308,0.578034 2.90435,1.630811 3.30729,2.83482 l -0.23623,77.815852 c 0.11738,1.71232 -0.93216,2.43728 -1.88989,2.74032 z"
       id="path851-0"
       sodipodi:nodetypes="ccccccccc" />
    <path
       style="fill:#402a2c;fill-opacity:1;stroke:#402a2c;stroke-width:0.264583px;stroke-linecap:butt;stroke-linejoin:miter;stroke-opacity:1"
       d="m 37.946396,156.41072 50.812629,0.22813 c 1.91724,0.0376 3.24642,-1.76095 3.40178,-3.11831 l -0.14174,-77.626852 c -0.233,-1.5152 -1.07604,-2.26041 -2.83482,-2.929316 L 37.684996,72.586398 c -1.58188,1.012347 -2.70045,2.45358 -2.29751,3.657589 l -0.028,77.894143 c 0.65192,1.51185 3.5446,1.96955 2.58687,2.27259 z"
       id="path851-0-6"
       sodipodi:nodetypes="ccccccccc" />
  </g>
</svg>
